<svg width="154" height="25" viewBox="0 0 154 25" fill="none" xmlns="http://www.w3.org/2000/svg">
<path d="M16.128 20.576H8.576L7.456 24H0L8.288 1.344H16.48L24.736 24H17.248L16.128 20.576ZM14.4 15.232L12.352 8.928L10.304 15.232H14.4ZM37.742 24L33.486 15.872H33.454V24H26.35V1.344H36.91C38.7447 1.344 40.3127 1.67467 41.614 2.336C42.9153 2.976 43.886 3.86133 44.526 4.992C45.1873 6.10133 45.518 7.36 45.518 8.768C45.518 10.2827 45.0913 11.6267 44.238 12.8C43.406 13.9733 42.2007 14.816 40.622 15.328L45.55 24H37.742ZM33.454 11.136H36.27C36.9527 11.136 37.4647 10.9867 37.806 10.688C38.1473 10.368 38.318 9.87733 38.318 9.216C38.318 8.61867 38.1367 8.14933 37.774 7.808C37.4327 7.46667 36.9313 7.296 36.27 7.296H33.454V11.136ZM54.8915 1.344V24H47.7875V1.344H54.8915ZM66.964 24.224C64.2547 24.224 62.0147 23.5947 60.244 22.336C58.4947 21.056 57.5453 19.1893 57.396 16.736H64.948C65.0547 18.0373 65.6307 18.688 66.676 18.688C67.06 18.688 67.38 18.6027 67.636 18.432C67.9133 18.24 68.052 17.952 68.052 17.568C68.052 17.0347 67.764 16.608 67.188 16.288C66.612 15.9467 65.716 15.5627 64.5 15.136C63.0493 14.624 61.844 14.1227 60.884 13.632C59.9453 13.1413 59.1347 12.4267 58.452 11.488C57.7693 10.5493 57.4387 9.344 57.46 7.872C57.46 6.4 57.8333 5.152 58.58 4.128C59.348 3.08267 60.3827 2.29333 61.684 1.76C63.0067 1.22667 64.4893 0.959999 66.132 0.959999C68.9053 0.959999 71.1027 1.6 72.724 2.88C74.3667 4.16 75.2307 5.96267 75.316 8.288H67.668C67.6467 7.648 67.4867 7.18933 67.188 6.912C66.8893 6.63467 66.5267 6.496 66.1 6.496C65.8013 6.496 65.556 6.60267 65.364 6.816C65.172 7.008 65.076 7.28533 65.076 7.648C65.076 8.16 65.3533 8.58667 65.908 8.928C66.484 9.248 67.3907 9.64267 68.628 10.112C70.0573 10.6453 71.2307 11.1573 72.148 11.648C73.0867 12.1387 73.8973 12.8213 74.58 13.696C75.2627 14.5707 75.604 15.6693 75.604 16.992C75.604 18.3787 75.2627 19.6267 74.58 20.736C73.8973 21.824 72.9053 22.6773 71.604 23.296C70.3027 23.9147 68.756 24.224 66.964 24.224ZM105.332 1.344V24H98.26V12.704L94.772 24H88.692L85.204 12.704V24H78.1V1.344H86.804L91.796 14.944L96.66 1.344H105.332ZM115.482 1.344V14.112C115.482 15.1573 115.706 15.9893 116.154 16.608C116.623 17.2053 117.37 17.504 118.394 17.504C119.418 17.504 120.175 17.2053 120.666 16.608C121.156 15.9893 121.402 15.1573 121.402 14.112V1.344H128.474V14.112C128.474 16.2667 128.026 18.112 127.13 19.648C126.234 21.1627 125.007 22.304 123.45 23.072C121.892 23.84 120.154 24.224 118.234 24.224C116.314 24.224 114.607 23.84 113.114 23.072C111.642 22.304 110.49 21.1627 109.658 19.648C108.826 18.1333 108.41 16.288 108.41 14.112V1.344H115.482ZM153.266 24H146.162L138.642 12.608V24H131.538V1.344H138.642L146.162 12.928V1.344H153.266V24Z" fill="#038C98"/>
</svg>
