<svg id="Layer_1" data-name="Layer 1" xmlns="http://www.w3.org/2000/svg" viewBox="0 0 449.58 367.17">
  <defs>
    <style>
      .cls-1{fill:none}.cls-2{fill:white}
    </style>
  </defs>
  <path class="cls-1" d="M227.75 150.66z"/>
  <rect class="cls-1" x="227.75" y="150.66"/>
  <path class="cls-1" d="M227.75 150.66z"/>
  <path class="cls-2" d="M90 143.2c16.28-19.69 21-29.46 19.68-37.36l-40.59 34.88c2.14-10.59 3-19.28 5.78-27.28s7.63-15.31 11.35-22.5c-11.38 2.25-22.85 12.18-27 23.81-7 19.72-1.82 39.9-2.77 60.06a98.28 98.28 0 0131.58-29.64c-1.6 2.48-2.88 5.25-4.85 7.4-10.4 11.43-21.01 22.73-31.27 33.74 0-6.92.16-15.14 0-23.35-.25-9.91-1.37-19.83-1-29.71.2-5 2.91-9.81 4.56-15C37.12 131.7 30.4 164.81 36.91 187c4.13 14 9 27.87 13.59 41.75 1.84-4.62 3.28-10.35 6.2-15.18 7.92-13.09 17-25.52 24.59-38.76 5.53-9.6 9.86-19.97 8.71-31.61zm317.73-1.52c-1 1.06-3 2.58-2.74 3.12 5.5 12.64 10.62 25.51 17.12 37.64 6.66 12.42 14.81 24 22.07 36.12 1.42 2.37 1.78 5.38 2.84 8.8 2.88-9.67 4.72-18.44 8.08-26.58 8.47-20.53 10.16-41.21 1.71-61.88-3.41-8.34-9.06-15.77-13.68-23.61l-2.4 1.33c4 11.24 7.07 22.17 4.81 34.68-2 11.28-.43 23.22-.43 34.87-6.12-13.53-17.59-21.53-27.45-31-4.06-3.9-6.84-9.13-10.21-13.74L440 169.51c0-12.71.07-27.88 0-43-.1-17.24-16.77-36.73-35.09-39.24 16.85 12.91 16.26 31.76 20.5 49.15l-40.07-32.63c1.83 15.03 9.42 27.99 22.41 37.9zm-209.24 292c13-11.25 25-22 37.35-32.21 10.31-8.56 13.86-8.48 25.05-.93a114 114 0 0111.52 8.3c9.32 8.14 18.39 16.56 27.8 25.09l12.3-9.71-49.6-35.49c4.2.8 7.76.65 10.42 2.12 9.92 5.49 19.42 11.74 29.31 17.29 21.49 12.07 43.69 15.27 66.35 3.48 7.51-3.91 15.51-7.83 20.37-17.35-32.8 13.76-45 10.23-72.47-2.29-13.21-6-26.94-10.42-42.08-9.67-14.8.73-29.46 2.95-44.58.56-17.91-2.82-34.62 3.8-50.87 11.27-12.1 5.56-24.43 12-38.28 10.34-10.21-1.25-20.19-4.49-30.26-6.85 0 .05-.16 1.09.27 1.51 16.34 16.15 35.68 24.08 58.77 20.22 15.78-2.64 28.76-11.29 41.38-20.63 7.11-5.26 14.82-9.59 23.91-9.37L187 424.68zM409.7 281.36l-2.36-1.17c-6.53 10.25-14.27 19.94-19.31 30.87-9.39 20.37-12 43.89-30.36 61 54.63-3.91 104.93-40.55 100-73.19-13.42 29.1-43.8 33.42-66.15 49.14 13.7-20.39 9.48-45.23 18.18-66.65zM39.57 301c-.54 2.7-.87 3.31-.74 3.79 9.06 31.26 28.62 52.29 60.43 60.7 13.39 3.54 27.11 5.82 39.54 8.43-6.09-10.45-12.66-20.42-17.86-31.06-3.87-7.91-5.48-16.89-9-25-5.45-12.66-12.52-24.38-24-35.33L103.91 349c-20.52-14.67-50.38-19-64.34-48zm339 28.26l-1.86-2c-13.7 12.48-27.1 25.32-41.23 37.28-6.23 5.27-13.8 9.08-21.08 13-4.31 2.3-9.24 3.45-15.06 5.53 9.24 2 16.88 3.54 24.43 5.37 18.83 4.57 37.86 9.53 57.11 4.05 19.86-5.66 36-16.72 44.17-37.35-9.81 11-22.46 16.07-36.4 18-13.6 1.84-27.29 3-40.95 4.41 17.5-12.24 20.67-32.55 30.91-48.26zm23.68 7.64c11.57-7.51 22.14-14.07 32.4-21.1 24.52-16.81 39.45-39.17 39.39-69.87 0-2.1-.95-4.21-1.66-7.19-2.4 6.19-3.3 11.84-6.36 15.82-11.86 15.41-24.4 30.3-35.66 44.12l-6.14-62-3.41-.39c-2.15 11.53-4.65 23-6.36 34.59-2.08 14.07-3.05 28.32-5.36 42.35-1.22 7.7-4.25 15.09-6.8 23.69zm-328.88 22c9.31 16.85 22.28 28.35 40.53 34 19.75 6.15 38.65 2.13 57.71-2.65 8.44-2.12 16.93-4 26.5-6.3-9.48-3.84-18.52-5.86-25.57-10.76-10.32-7.18-19.11-16.52-28.72-24.74-7.67-6.55-15.6-12.78-23.41-19.16L119 330.9c10.46 16.26 15.25 36.31 35.26 48.6-29.08-5.13-58.35 1.13-80.85-20.61zm2.87-120.76l-2.93.37-6 61.66c-11.84-19.28-36.29-30.41-41.52-57.67-3.51 25.58 2.74 46.47 21.48 61.95 14.56 12 30.49 22.4 45.9 33.39.62.44 2-.23 3.84-.49C84.64 316.82 86.49 293.89 83 272c-1.77-11.35-4.45-22.58-6.72-33.86zm-45-60.73c-8.92 17.85-7.68 36.55-4.19 54.85 4.24 22.22 21.6 36.58 35.49 55.79-2.42-36.41 18.73-66.67 14.22-100.92-6.31 21.09-26.18 36.45-25 60.8-4.1-24.4-24.51-43.78-20.44-70.53zM435 283.86c42.92-47 43.84-77 30.7-109.78 3.75 26.91-15.52 47.18-19.91 71.86 1.38-24.4-18.31-39.31-26.16-59.6a238.31 238.31 0 004.42 37.58c3.95 19.87 14.78 38.44 10.95 59.94zm-15.3-157.52c-9.1-43.31-29.53-53-58.53-59.63 21.05 19.79 32.92 45.49 58.53 59.63zm-344.32 3.1c25-14.6 37.17-40.91 57.21-60.93C101.36 73.22 82 94 75.38 129.44z" transform="translate(-24.5 -66.71)"/>
  <path class="cls-2" d="M198.51 433.64l-11.47-9 48.15-35.38c-9.09-.22-16.81 4.1-23.91 9.37-12.62 9.34-25.6 18-41.38 20.63-23.09 3.86-42.43-4.07-58.77-20.22-.43-.43-.27-1.46-.27-1.51 10.08 2.36 20 5.6 30.26 6.85 13.85 1.69 26.17-4.78 38.28-10.34 16.25-7.47 33-14.09 50.87-11.27 15.13 2.38 29.78.16 44.58-.56 15.14-.74 28.88 3.66 42.08 9.67 27.48 12.52 39.67 16.05 72.47 2.29-4.86 9.53-12.85 13.45-20.37 17.35-22.66 11.79-44.86 8.58-66.35-3.48-9.89-5.55-19.39-11.8-29.31-17.29-2.66-1.47-6.22-1.33-10.42-2.12l49.6 35.49-12.3 9.71c-9.42-8.53-18.49-16.95-27.8-25.09a114 114 0 00-11.52-8.3c-11.2-7.54-14.74-7.63-25.05.93-12.37 10.31-24.36 21.02-37.37 32.27zM409.7 281.36c-8.75 21.42-4.48 46.27-18.21 66.64 22.35-15.72 52.73-20 66.15-49.14 5 32.65-45.34 69.28-100 73.19 18.38-17.11 21-40.63 30.36-61 5-10.94 12.79-20.62 19.31-30.87zM39.57 301c14 29 43.81 33.31 64.34 48L88 282.55c11.48 11 18.55 22.67 24 35.33 3.5 8.12 5.11 17.11 9 25 5.2 10.64 11.77 20.6 17.86 31.06-12.43-2.61-26.15-4.89-39.54-8.43-31.81-8.42-51.37-29.44-60.43-60.7-.19-.47.11-1.09.68-3.81z" transform="translate(-24.5 -66.71)"/>
  <path class="cls-2" d="M378.61 329.29c-10.24 15.74-13.42 36-30.87 48.18 13.65-1.44 27.35-2.57 40.95-4.41 13.94-1.89 26.59-7 36.4-18-8.13 20.63-24.31 31.69-44.17 37.35-19.25 5.48-38.28.52-57.11-4.05-7.56-1.83-15.19-3.35-24.43-5.37 5.82-2.08 10.75-3.23 15.06-5.53 7.28-3.88 14.84-7.69 21.08-13 14.14-12 27.53-24.8 41.23-37.28zM402.29 336.92c2.55-8.6 5.57-16 6.83-23.67 2.31-14 3.28-28.27 5.36-42.35 1.71-11.59 4.21-23.07 6.36-34.59l3.41.39 6.14 62c11.26-13.82 23.8-28.7 35.66-44.12 3.06-4 4-9.63 6.36-15.82.72 3 1.66 5.08 1.66 7.19.07 30.7-14.87 53.06-39.39 69.87-10.24 7.03-20.82 13.59-32.39 21.1zM73.41 358.89c22.5 21.73 51.77 15.47 80.85 20.6-20-12.28-24.8-32.34-35.26-48.6l1.45-1.56c7.81 6.37 15.75 12.61 23.41 19.16 9.62 8.21 18.41 17.56 28.72 24.74 7 4.9 16.09 6.92 25.57 10.76-9.57 2.27-18.06 4.18-26.5 6.3-19.06 4.78-38 8.8-57.71 2.65-18.25-5.7-31.22-17.19-40.53-34.05zM76.28 238.14c2.28 11.29 5 22.51 6.75 33.88 3.46 21.88 1.62 44.81 14 65.33-1.8.26-3.22.94-3.84.49-15.4-11-31.33-21.37-45.9-33.39-18.75-15.48-25-36.37-21.48-61.95 5.23 27.26 29.68 38.39 41.52 57.67l6-61.66z" transform="translate(-24.5 -66.71)"/>
  <path class="cls-2" d="M31.32 177.4c-4.06 26.74 16.34 46.13 20.49 70.52-1.15-24.35 18.72-39.71 25-60.8C81.35 221.37 60.2 251.64 62.62 288c-13.89-19.21-31.25-33.57-35.49-55.79-3.49-18.21-4.73-36.96 4.19-54.81zM435 283.86c3.82-21.5-7-40.07-11-59.93a238.31 238.31 0 01-4.42-37.58c7.85 20.29 27.54 35.2 26.16 59.6 4.4-24.68 23.66-45 19.91-71.86 13.2 32.76 12.27 62.82-30.65 109.77z" transform="translate(-24.5 -66.71)"/>
  <path class="cls-2" d="M407.49 141.42c3.36 4.62 6.15 9.85 10.2 13.75 9.86 9.48 21.32 17.49 27.45 31 0-11.65-1.6-23.59.43-34.87 2.25-12.51-.77-23.44-4.81-34.68l2.4-1.33c4.63 7.84 10.27 15.27 13.68 23.61 8.45 20.67 6.75 41.35-1.71 61.88-3.36 8.14-5.19 16.91-8.08 26.58-1.06-3.42-1.42-6.43-2.84-8.8-7.26-12.1-15.42-23.71-22.07-36.12-6.5-12.13-11.62-25-17.12-37.64-.23-.54 1.77-2.06 2.74-3.12zM90 143.2c1.12 11.64-3.21 22-8.73 31.58-7.62 13.22-16.65 25.67-24.57 38.76-2.92 4.83-4.36 10.56-6.2 15.18C46 214.84 41 201 36.91 187c-6.51-22.16.21-55.28 18.54-68.69-1.66 5.16-4.37 10-4.56 15-.39 9.87.74 19.8 1 29.71.2 8.21 0 16.43 0 23.35 10.25-11 20.87-22.3 31.31-33.74 2-2.15 3.25-4.92 4.85-7.4z" transform="translate(-24.5 -66.71)"/>
  <path class="cls-2" d="M90 143.2l-2 2a98.28 98.28 0 00-31.58 29.64c1-20.16-4.2-40.34 2.77-60.06 4.11-11.63 15.58-21.56 27-23.81-3.72 7.18-8.53 14.49-11.35 22.51s-3.64 16.69-5.78 27.28l40.62-34.88c1.32 7.86-3.37 17.64-19.68 37.32zM407.75 141.69c-13-9.91-20.58-22.87-22.43-37.94l40.07 32.63c-4.24-17.39-3.65-36.24-20.5-49.15 18.32 2.51 35 22 35.09 39.24.09 15.17 0 30.34 0 43l-32.51-28.08z" transform="translate(-24.5 -66.71)"/>
  <path class="cls-2" d="M419.7 126.34c-25.6-14.14-37.47-39.84-58.53-59.63 29 6.61 49.43 16.29 58.53 59.63zM75.38 129.44C82 94 101.36 73.22 132.6 68.52c-20.05 20.01-32.24 46.32-57.22 60.92z" transform="translate(-24.5 -66.71)"/>
  <g>
    <path d="M150.75 236.37l11.54 38h-8.67l-2.38-8.72h-12.73l-2.44 8.72h-8.34l11.48-38zm-10.35 22.42h8.94l-1.46-5.31c-1.46-5.25-2.22-8-2.87-11.38h-.22a143.7 143.7 0 01-2.82 11.16zM179.78 236.37c8.4 0 13.16 3.2 13.16 11.16 0 6.61-3.58 9.7-8 10.56v.22c2 1 3.25 2.38 5 5.58l5.8 10.45h-9.84L179.62 262c-.7-1.35-1.73-1.79-3.47-1.79h-.54v14.14h-8.18v-38zm-4.17 17.28h3.14c4.39 0 5.8-1.9 5.8-5.42s-2.06-5-5.69-5h-3.25zM201.07 236.37h8.29v38h-8.29zM234.71 264.21c0-6-17.5-5.2-17.5-17.17 0-6.28 5.53-11.21 13.38-11.21 6.34 0 10.29 2.92 11.54 4.55L237 246.5a8.83 8.83 0 00-7.1-3.52c-2.71 0-4.23 1.52-4.23 3.41 0 6.12 17.44 5.2 17.44 17.28 0 5.69-4.71 11.21-14.35 11.21-7.31 0-11.86-3.25-13.16-4.71l4.71-6.83c1.63 1.63 4.93 4.55 9.53 4.55 3.3 0 4.87-1.68 4.87-3.68zM269.65 256.84h.22l7.1-20.48h12.4v38h-7.91v-28.14h-.22l-8.45 23.56H266l-8.34-23.56h-.32v28.11h-7.58v-38h12.73zM319.22 260.58v-24.21h8.29v23c0 11.59-7.1 15.49-15.49 15.49-9.8 0-13.92-5.9-13.92-13.71v-24.78h8.29v23.18c0 5.42 1.9 8.4 6.77 8.4 3.94 0 6.06-2.12 6.06-7.37zM343.59 246.71a117 117 0 01.54 13.27v14.35h-7.91v-38h9.91l7.75 15a107.36 107.36 0 015.37 11.67h.22c-.43-5.31-.43-10.56-.43-14.57v-12h7.85v38h-9.7l-8.34-16a108.18 108.18 0 01-5-11.59z" transform="translate(-24.5 -66.71)"/>
  </g>
  <path class="cls-2" d="M215.11 137.36L250 76.83l26.5 46q3.25-.24 6.52-.38L253.39 71h-6.75l-77.56 93.59a191.21 191.21 0 0146.03-27.23z" transform="translate(-24.5 -66.71)"/>
  <g>
    <path d="M145.38 299.08v-11.59h1.53v11.59zM149.77 299.08v-8.39h1.28v1.19a3 3 0 012.67-1.38 3.51 3.51 0 011.4.27 2.2 2.2 0 011 .71 2.74 2.74 0 01.44 1.05 8.14 8.14 0 01.08 1.38v5.16h-1.42V294a3.82 3.82 0 00-.17-1.3 1.37 1.37 0 00-.59-.69 1.87 1.87 0 00-1-.26 2.31 2.31 0 00-1.57.58 2.85 2.85 0 00-.66 2.19v4.58zM158.54 296.57l1.41-.22a2 2 0 00.66 1.3 2.3 2.3 0 001.51.45 2.22 2.22 0 001.45-.4 1.19 1.19 0 00.47-.94.86.86 0 00-.42-.76 6.17 6.17 0 00-1.45-.48 13.31 13.31 0 01-2.17-.68 2.07 2.07 0 01-1.23-1.92 2.15 2.15 0 01.26-1 2.3 2.3 0 01.7-.79 2.91 2.91 0 01.91-.42 4.3 4.3 0 011.23-.17 4.86 4.86 0 011.74.28 2.36 2.36 0 011.1.77 3 3 0 01.49 1.3l-1.39.19a1.52 1.52 0 00-.55-1 2 2 0 00-1.29-.36 2.33 2.33 0 00-1.4.32 1 1 0 00-.42.76.78.78 0 00.17.5 1.26 1.26 0 00.54.38q.21.08 1.26.36a17.29 17.29 0 012.11.66 2.14 2.14 0 01.94.75 2.09 2.09 0 01.34 1.22 2.39 2.39 0 01-.42 1.34 2.68 2.68 0 01-1.2 1 4.35 4.35 0 01-1.77.34 3.94 3.94 0 01-2.49-.68 3.16 3.16 0 01-1.09-2.1zM167.55 302.29v-11.61h1.3v1.09a3.2 3.2 0 011-1 2.85 2.85 0 011.4-.32 3.32 3.32 0 011.9.55 3.4 3.4 0 011.24 1.56 5.7 5.7 0 01.42 2.21 5.6 5.6 0 01-.46 2.32 3.51 3.51 0 01-3.2 2.13 2.68 2.68 0 01-1.28-.3 2.92 2.92 0 01-.93-.76v4.09zm1.29-7.37a3.65 3.65 0 00.66 2.39 2 2 0 001.59.77 2.06 2.06 0 001.63-.8 3.81 3.81 0 00.68-2.49 3.71 3.71 0 00-.66-2.4 2 2 0 00-1.58-.8 2.05 2.05 0 00-1.61.85 3.8 3.8 0 00-.72 2.49zM176.9 289.13v-1.64h1.42v1.64zm0 10v-8.39h1.42v8.39zM180.81 299.08v-8.39h1.28V292a3.46 3.46 0 01.9-1.18 1.58 1.58 0 01.91-.28 2.77 2.77 0 011.46.46l-.49 1.32a2 2 0 00-1-.31 1.36 1.36 0 00-.84.28 1.53 1.53 0 00-.53.78 5.54 5.54 0 00-.24 1.66v4.39zM192.3 296.37l1.47.18a3.59 3.59 0 01-1.29 2 3.88 3.88 0 01-2.4.71 3.84 3.84 0 01-2.92-1.13 4.43 4.43 0 01-1.08-3.18 4.64 4.64 0 011.09-3.29 3.69 3.69 0 012.83-1.17 3.59 3.59 0 012.75 1.15 4.56 4.56 0 011.07 3.22v.38h-6.26a3.22 3.22 0 00.78 2.12 2.33 2.33 0 001.75.73 2.18 2.18 0 001.34-.41 2.73 2.73 0 00.87-1.31zm-4.67-2.3h4.69a2.85 2.85 0 00-.54-1.59 2.18 2.18 0 00-1.76-.82 2.26 2.26 0 00-1.65.66 2.6 2.6 0 00-.74 1.75zM196.27 299.08v-1.62h1.62v1.62a2.87 2.87 0 01-.32 1.44 2.06 2.06 0 01-1 .85l-.4-.61a1.35 1.35 0 00.66-.58 2.5 2.5 0 00.24-1.1zM205.79 299.08v-11.59h8.38v1.37h-6.84v3.55h6.41v1.36h-6.41v3.94h7.11v1.37zM216.71 299.08v-8.39H218v1.18a3 3 0 012.54-1.37 2.77 2.77 0 011.53.39 2.08 2.08 0 01.84 1.08 3 3 0 012.59-1.47 2.56 2.56 0 011.92.69 3 3 0 01.67 2.13v5.76h-1.42v-5.29a3.91 3.91 0 00-.14-1.23 1.19 1.19 0 00-.5-.6 1.57 1.57 0 00-.85-.23 2 2 0 00-1.47.59 2.6 2.6 0 00-.58 1.88v4.88h-1.43v-5.45a2.39 2.39 0 00-.35-1.42 1.32 1.32 0 00-1.14-.47 2.07 2.07 0 00-1.11.32 1.8 1.8 0 00-.74.92 5.21 5.21 0 00-.23 1.75v4.35zM230.53 302.29v-11.61h1.3v1.09a3.2 3.2 0 011-1 2.85 2.85 0 011.4-.32 3.32 3.32 0 011.9.55 3.4 3.4 0 011.24 1.56 5.7 5.7 0 01.42 2.21 5.6 5.6 0 01-.46 2.32 3.51 3.51 0 01-3.2 2.13 2.68 2.68 0 01-1.28-.3 2.92 2.92 0 01-.93-.76v4.09zm1.29-7.37a3.65 3.65 0 00.66 2.39 2 2 0 001.59.77 2.06 2.06 0 001.63-.8 3.81 3.81 0 00.68-2.49 3.71 3.71 0 00-.66-2.4 2 2 0 00-1.58-.8 2.05 2.05 0 00-1.61.85 3.8 3.8 0 00-.71 2.49zM239.34 294.88a4.33 4.33 0 011.3-3.45 3.9 3.9 0 012.64-.93 3.77 3.77 0 012.83 1.13 4.31 4.31 0 011.1 3.13 5.56 5.56 0 01-.49 2.55 3.44 3.44 0 01-1.42 1.44 4.12 4.12 0 01-2 .51 3.77 3.77 0 01-2.85-1.13 4.52 4.52 0 01-1.11-3.25zm1.46 0a3.58 3.58 0 00.7 2.42 2.34 2.34 0 003.53 0 3.66 3.66 0 00.7-2.46 3.47 3.47 0 00-.71-2.36 2.35 2.35 0 00-3.53 0 3.56 3.56 0 00-.68 2.4zM250.77 299.08l-2.57-8.39h1.47l1.34 4.84.5 1.8.43-1.73 1.34-4.92h1.46l1.26 4.87.42 1.6.48-1.62 1.44-4.85h1.38l-2.62 8.39h-1.48l-1.34-5-.32-1.43-1.7 6.46zM267 296.37l1.47.18a3.59 3.59 0 01-1.29 2 3.88 3.88 0 01-2.4.71 3.84 3.84 0 01-2.92-1.13 4.43 4.43 0 01-1.08-3.18 4.64 4.64 0 011.09-3.29 3.69 3.69 0 012.83-1.17 3.59 3.59 0 012.75 1.15 4.56 4.56 0 011.07 3.22v.38h-6.26a3.22 3.22 0 00.78 2.12 2.33 2.33 0 001.75.73 2.18 2.18 0 001.34-.41 2.73 2.73 0 00.87-1.31zm-4.67-2.3H267a2.85 2.85 0 00-.54-1.59 2.18 2.18 0 00-1.76-.82 2.26 2.26 0 00-1.65.66 2.6 2.6 0 00-.73 1.75zM270.57 299.08v-8.39h1.28V292a3.46 3.46 0 01.9-1.18 1.58 1.58 0 01.91-.28 2.77 2.77 0 011.46.46l-.49 1.32a2 2 0 00-1-.31 1.36 1.36 0 00-.84.28 1.53 1.53 0 00-.53.78 5.54 5.54 0 00-.24 1.66v4.39zM275.8 299.08v-1.62h1.62v1.62a2.87 2.87 0 01-.32 1.44 2.06 2.06 0 01-1 .85l-.4-.61a1.35 1.35 0 00.66-.58 2.5 2.5 0 00.24-1.1zM287.94 299.08v-10.22h-3.82v-1.37h9.18v1.37h-3.83v10.22zM294.42 299.08v-8.39h1.28V292a3.46 3.46 0 01.9-1.18 1.58 1.58 0 01.91-.28 2.77 2.77 0 011.49.46l-.49 1.32a2 2 0 00-1-.31 1.36 1.36 0 00-.84.28 1.53 1.53 0 00-.53.78 5.54 5.54 0 00-.24 1.66v4.39zM305.64 298a5.31 5.31 0 01-1.52.95 4.39 4.39 0 01-1.57.28 3 3 0 01-2.13-.68 2.23 2.23 0 01-.74-1.73 2.3 2.3 0 01.28-1.13 2.33 2.33 0 01.74-.82 3.45 3.45 0 011-.47 10.27 10.27 0 011.26-.21 13 13 0 002.54-.49v-.37a1.57 1.57 0 00-.4-1.23 2.38 2.38 0 00-1.62-.48 2.51 2.51 0 00-1.48.38 2.15 2.15 0 00-.71 1.24l-1.39-.19a3.44 3.44 0 01.62-1.44 2.74 2.74 0 011.26-.85 5.61 5.61 0 011.91-.3 5 5 0 011.75.25 2.29 2.29 0 011 .64 2.23 2.23 0 01.44 1 8 8 0 01.07 1.31v1.9a20.15 20.15 0 00.09 2.51 3.17 3.17 0 00.36 1h-1.49a3 3 0 01-.27-1.07zm-.12-3.18a10.42 10.42 0 01-2.32.54 5.36 5.36 0 00-1.24.28 1.24 1.24 0 00-.56.46 1.26 1.26 0 00.23 1.63 1.85 1.85 0 001.26.38 2.94 2.94 0 001.46-.36 2.22 2.22 0 00.94-1 3.43 3.43 0 00.23-1.42zM309.51 299.08v-8.39h1.28v1.19a3 3 0 012.67-1.38 3.51 3.51 0 011.4.27 2.2 2.2 0 011 .71 2.74 2.74 0 01.44 1.05 8.14 8.14 0 01.08 1.38v5.16h-1.48V294a3.82 3.82 0 00-.17-1.3 1.37 1.37 0 00-.59-.69 1.87 1.87 0 00-1-.26 2.31 2.31 0 00-1.57.58 2.85 2.85 0 00-.66 2.19v4.58zM318.28 296.57l1.41-.22a2 2 0 00.66 1.3 2.3 2.3 0 001.51.45 2.22 2.22 0 001.45-.4 1.19 1.19 0 00.47-.94.86.86 0 00-.42-.76 6.17 6.17 0 00-1.45-.48 13.31 13.31 0 01-2.17-.68 2.07 2.07 0 01-1.23-1.92 2.15 2.15 0 01.26-1 2.3 2.3 0 01.7-.79 2.91 2.91 0 01.91-.42 4.3 4.3 0 011.23-.17 4.86 4.86 0 011.74.28 2.36 2.36 0 011.1.77 3 3 0 01.49 1.3l-1.39.19a1.52 1.52 0 00-.55-1 2 2 0 00-1.29-.36 2.33 2.33 0 00-1.4.32 1 1 0 00-.42.76.78.78 0 00.17.5 1.26 1.26 0 00.54.38q.21.08 1.26.36a17.29 17.29 0 012.11.66 2.14 2.14 0 01.94.75 2.09 2.09 0 01.34 1.22 2.39 2.39 0 01-.42 1.34 2.68 2.68 0 01-1.2 1 4.35 4.35 0 01-1.77.34 3.94 3.94 0 01-2.49-.68 3.16 3.16 0 01-1.09-2.1zM327.62 299.08v-7.29h-1.26v-1.11h1.26v-.89a3.93 3.93 0 01.15-1.26 1.82 1.82 0 01.72-.9 2.6 2.6 0 011.45-.34 7 7 0 011.33.14l-.21 1.24a4.77 4.77 0 00-.84-.08 1.25 1.25 0 00-.92.28 1.5 1.5 0 00-.27 1v.77h1.64v1.11H329v7.29zM331.59 294.88a4.33 4.33 0 011.3-3.45 3.9 3.9 0 012.64-.93 3.77 3.77 0 012.83 1.13 4.31 4.31 0 011.1 3.13 5.56 5.56 0 01-.49 2.55 3.44 3.44 0 01-1.42 1.44 4.12 4.12 0 01-2 .51 3.77 3.77 0 01-2.85-1.13 4.52 4.52 0 01-1.11-3.25zm1.46 0a3.58 3.58 0 00.7 2.42 2.34 2.34 0 003.53 0 3.66 3.66 0 00.7-2.46 3.47 3.47 0 00-.71-2.36 2.35 2.35 0 00-3.53 0 3.56 3.56 0 00-.69 2.4zM341.44 299.08v-8.39h1.28V292a3.46 3.46 0 01.9-1.18 1.58 1.58 0 01.91-.28 2.77 2.77 0 011.47.46l-.49 1.32a2 2 0 00-1-.31 1.36 1.36 0 00-.84.28 1.53 1.53 0 00-.53.78 5.54 5.54 0 00-.24 1.66v4.39zM347.19 299.08v-8.39h1.27v1.18a3 3 0 012.54-1.37 2.77 2.77 0 011.53.39 2.08 2.08 0 01.84 1.08 3 3 0 012.59-1.47 2.56 2.56 0 011.92.69 3 3 0 01.67 2.13v5.76h-1.42v-5.29a3.91 3.91 0 00-.14-1.23 1.19 1.19 0 00-.5-.6 1.57 1.57 0 00-.85-.23 2 2 0 00-1.47.59 2.6 2.6 0 00-.58 1.88v4.88h-1.42v-5.45a2.39 2.39 0 00-.35-1.42 1.32 1.32 0 00-1.14-.47 2.07 2.07 0 00-1.11.32 1.8 1.8 0 00-.74.92 5.21 5.21 0 00-.23 1.75v4.35z" transform="translate(-24.5 -66.71)"/>
  </g>
  <path class="cls-2" d="M250.11 67a149.72 149.72 0 10149.73 149.7A149.72 149.72 0 00250.11 67zm-97.18 253.55H347.3a142.2 142.2 0 01-194.37 0zM353 314.92v-.3H146.95a142.23 142.23 0 11206.05.3z" transform="translate(-24.5 -66.71)"/>
  <path class="cls-2" d="M391.85 213.81a287 287 0 00-73-29.3l-32.29-56a233.1 233.1 0 0132.72-2.31c5 0 10 .18 15 .5a193.76 193.76 0 00-36.48-3.46h-3.81a207.59 207.59 0 00-80.8 19.5l-1.67.82c-31.51 15.35-58 38.93-76.24 69.47l-.45.76h-18.44q7-4 14.28-7.48 2.44-3.63 5-7.14a287.84 287.84 0 00-32.38 16.34h4v4.12h290.23v-5.83zm-159-70.94L235 142q3.37-1.32 6.79-2.53a229.74 229.74 0 0138.58-10l30.69 53.22A290.63 290.63 0 00210 178.62v-.85a38 38 0 0122.9-34.9zm-22.52 40.62a240.36 240.36 0 01144.5 30.32h-119a38.06 38.06 0 01-25.45-30.32z" transform="translate(-24.5 -66.71)"/>
</svg>
