<svg width="195px" height="256px" viewBox="0 0 195 256" version="1.1" xmlns="http://www.w3.org/2000/svg" xmlns:xlink="http://www.w3.org/1999/xlink">
    <!-- Generator: Sketch 58 (84663) - https://sketch.com -->
    <title>Shape</title>
    <desc>Created with Sketch.</desc>
    <g id="ArisEagle">
        <path d="M183.596458,224.997177 L194.496458,227.677177 C191.386458,224.177177 188.416458,221.107177 184.166458,219.887177 C181.496494,218.940377 178.530729,220.028384 177.106458,222.477177 C175.836353,224.139653 174.420765,225.685756 172.876458,227.097177 C172.628859,227.46149 172.216945,227.67958 171.776458,227.67958 C171.33597,227.67958 170.924057,227.46149 170.676458,227.097177 C165.574342,221.424006 159.680271,216.516771 153.176458,212.527177 C148.446458,209.657177 143.406458,207.287177 138.486458,204.737177 C138.123038,204.589997 137.711419,204.623371 137.376458,204.827177 C133.461832,208.078752 129.017013,210.632662 124.236458,212.377177 L129.396458,216.137177 L129.226458,216.387177 L120.576458,211.387177 C121.276458,210.997177 121.836458,210.647177 122.416458,210.387177 C127.590953,207.927055 132.203408,204.427716 135.966458,200.107177 C136.429215,199.457258 136.815121,198.755916 137.116458,198.017177 C138.116458,195.897177 138.896458,193.577177 140.256458,191.687177 C144.146458,186.287177 149.846458,183.887177 156.256458,182.857177 C156.998176,182.694239 157.773155,182.785827 158.456458,183.117177 C160.102926,184.198923 161.661132,185.409374 163.116458,186.737177 C163.96604,187.665816 164.729198,188.669972 165.396458,189.737177 L165.856458,189.537177 L162.466458,179.967177 C163.536458,180.647177 164.676458,181.297177 165.726458,182.077177 C167.976458,183.757177 170.236458,185.507177 170.906458,188.417177 C171.046736,189.686646 171.046736,190.967707 170.906458,192.237177 C175.186458,191.937177 178.286458,189.057177 177.736458,184.507177 C177.265913,181.541409 176.171852,178.709122 174.526458,176.197177 C173.996458,175.307177 173.326458,174.587177 174.006458,173.407177 C174.172997,172.809642 174.066842,172.169049 173.716458,171.657177 C172.428627,169.520979 170.981171,167.48518 169.386458,165.567177 C166.636458,162.567177 163.606458,159.727177 160.746458,156.777177 C160.07264,155.987691 159.454486,155.152347 158.896458,154.277177 L158.586458,154.417177 L158.586458,159.537177 C154.586458,159.167177 152.206458,156.347177 149.236458,154.097177 L150.116458,158.187177 L142.576458,155.417177 L144.156458,157.777177 C143.96224,157.85499 143.761436,157.915231 143.556458,157.957177 C135.301737,158.262942 127.096379,159.371503 119.056458,161.267177 C118.187949,161.544051 117.242105,161.198612 116.756458,160.427177 C111.216458,152.977177 105.446458,145.687177 100.116458,138.087177 C94.3864578,129.907177 88.9264578,121.527177 83.5964578,113.087177 C76.4929793,101.860452 70.1810039,90.1520554 64.7064578,78.0471766 C59.4964578,66.4071766 54.9664578,54.5371766 52.6964578,41.8971766 C51.4964578,35.1071766 50.7764578,28.3871766 51.5964578,21.5271766 C52.1384891,15.593849 53.9932623,9.85532443 57.0264578,4.72717663 C58.0064578,3.10717663 59.0764578,1.63717663 60.1264578,0.107176634 C59.9564578,0.047176634 59.8564578,-0.022823366 59.7864578,0.007176634 C59.2465727,0.179931052 58.7158791,0.380192785 58.1964578,0.607176634 C49.1440043,5.05238913 42.0558397,12.6890851 38.2964578,22.0471766 C35.2980623,29.5579058 33.9180092,37.6167342 34.2464578,45.6971766 C34.2464578,46.1471766 34.2464578,46.5971766 34.2464578,47.0371766 L33.8764578,47.0971766 C31.1664578,41.2971766 28.1364578,35.5971766 28.6964578,28.8971766 C28.5064578,28.8371766 28.4464578,28.7971766 28.4164578,28.8071766 C27.8264578,29.0871766 27.2264578,29.3571766 26.6464578,29.6671766 C19.8135069,33.1949806 13.7944893,38.1137476 8.97645783,44.1071766 C4.79485848,49.4415713 1.89368132,55.6647332 0.496457829,62.2971766 C-9.67791267e-05,64.477184 -0.125623133,66.7254918 0.126457829,68.9471766 C0.796457829,74.1071766 3.18645783,78.6871766 5.84645783,83.1071766 C11.0664578,91.7771766 17.7164578,99.2671766 24.9664578,106.257177 C27.6164578,108.817177 30.3264578,111.317177 32.9664578,113.847177 C21.8717127,108.395601 11.4090313,101.742409 1.76645783,94.0071766 C2.39511257,97.0019891 3.19984298,99.9571194 4.17645783,102.857177 C5.96645783,107.907177 7.91645783,112.907177 9.86645783,117.857177 C10.6811676,120.387626 12.2387437,122.614228 14.3364578,124.247177 C23.2069923,130.511168 32.7618542,135.74487 42.8164578,139.847177 C43.8164578,140.277177 44.8164578,140.777177 45.8164578,141.247177 L45.6864578,141.597177 C36.5522982,140.20224 27.5293671,138.157042 18.6864578,135.477177 C18.9243372,136.035888 19.1948022,136.580157 19.4964578,137.107177 C24.0264578,144.437177 28.5464578,151.787177 33.1464578,159.107177 C34.0564578,160.557177 35.0464578,162.207177 36.4364578,163.107177 C42.001714,166.569454 47.9736776,169.330396 54.2164578,171.327177 C55.9964578,171.887177 57.6464578,172.877177 59.4264578,173.447177 C63.6364578,174.797177 67.8664578,176.077177 72.1164578,177.257177 C74.8864578,178.027177 77.7264578,178.567177 80.5364578,179.257177 C80.1765415,179.47498 79.7542465,179.566477 79.3364578,179.517177 C75.6164578,179.347177 71.8764578,179.297177 68.1764578,178.957177 C64.0464578,178.577177 59.9364578,177.957177 55.8264578,177.387177 C52.2864578,176.867177 48.7764578,176.187177 44.8264578,175.507177 C45.6764578,176.597177 46.2064578,177.317177 46.7664578,178.007177 C53.0197912,185.613843 59.2864578,193.213843 65.5664578,200.807177 C65.9413552,201.200091 66.4758768,201.399154 67.0164578,201.347177 C73.0199153,199.882836 78.877463,197.874534 84.5164578,195.347177 C86.6164578,194.407177 88.6764578,193.347177 91.0264578,192.227177 C90.8869366,192.508981 90.7158386,192.774015 90.5164578,193.017177 C84.8492507,197.730029 78.6665166,201.785876 72.0864578,205.107177 C67.3305387,207.323036 62.2776705,208.835528 57.0864578,209.597177 C51.1419615,210.670111 45.0624323,210.768059 39.0864578,209.887177 C32.4415479,208.959255 26.0891495,206.553613 20.4964578,202.847177 C19.0164578,201.847177 17.6064578,200.787177 15.9564578,199.607177 C16.5964578,203.167177 17.2264578,206.477177 17.7664578,209.797177 C18.1249394,211.892972 19.3914253,213.723154 21.2264578,214.797177 C24.6864578,217.107177 28.6364578,217.967177 32.6464578,218.547177 C39.9355063,219.556794 47.3143373,219.751327 54.6464578,219.127177 C55.3131245,219.073843 55.9797912,219.037177 56.6464578,219.017177 C57.2564578,219.017177 57.8564578,219.017177 58.4664578,219.017177 C45.0964578,223.477177 31.7764578,224.427177 18.4664578,218.917177 C18.4219484,219.646906 18.4319763,220.37894 18.4964578,221.107177 C19.2546361,225.672153 21.1533352,229.971744 24.0164578,233.607177 C24.7990304,234.679881 26.0486439,235.312126 27.3764578,235.307177 C37.7164578,235.967177 47.3764578,233.217177 56.9164578,229.667177 C59.3364578,228.767177 61.6964578,227.667177 64.0864578,226.727177 C53.1043489,233.614454 40.7491748,238.017264 27.8864578,239.627177 C27.8673376,239.843421 27.8673376,240.060932 27.8864578,240.277177 C27.9462569,240.509203 28.0231333,240.73649 28.1164578,240.957177 C29.4823985,244.693917 32.3893369,247.662782 36.0964578,249.107177 C37.4064578,249.677177 38.9964578,250.447177 40.2364578,250.167177 C46.9585322,248.599527 53.3104025,245.73609 58.9364578,241.737177 C63.2264578,238.737177 67.2664578,235.407177 71.2964578,232.317177 C71.159336,232.772041 70.9819684,233.213787 70.7664578,233.637177 C64.7664578,243.917177 55.2364578,249.707177 44.5764578,254.377177 C44.8016095,254.506634 45.0355095,254.620242 45.2764578,254.717177 C48.8685181,255.543049 52.5916351,255.624727 56.2164578,254.957177 C57.1364578,254.827177 61.8664578,253.637177 62.9264578,253.327177 C64.7464578,252.807177 66.3764578,252.207177 67.5764578,250.267177 C72.6978977,241.740143 79.0192995,233.994152 86.3464578,227.267177 C86.8910482,226.660983 87.780555,226.507905 88.4964578,226.897177 C95.8964578,230.207177 103.776458,231.547177 111.756458,232.347177 C116.216458,232.797177 120.756458,232.917177 125.186458,233.347177 C127.602918,233.533429 129.996671,233.945221 132.336458,234.577177 C135.246458,235.417177 137.436458,237.757177 136.336458,241.447177 C135.839949,242.563624 135.282442,243.651933 134.666458,244.707177 C132.666458,249.357177 136.516458,254.077177 140.726458,255.937177 C140.536458,255.607177 140.416458,255.367177 140.276458,255.137177 C138.456458,252.357177 138.546458,249.397177 140.856458,247.037177 C142.079971,245.788303 143.519969,244.771834 145.106458,244.037177 C149.846458,241.887177 154.206458,239.337177 157.106458,234.817177 C157.254319,234.576296 157.485709,234.398303 157.756458,234.317177 C158.522203,234.163423 159.310467,234.443156 159.807998,235.04521 C160.305528,235.647264 160.431733,236.474115 160.136458,237.197177 C159.447205,238.434062 158.829522,239.709493 158.286458,241.017177 C157.909175,242.268072 157.871212,243.59678 158.176458,244.867177 C158.654518,246.174398 159.396588,247.369199 160.356458,248.377177 C161.51294,249.611357 162.731166,250.786194 164.006458,251.897177 C163.446458,250.117177 162.326458,248.417177 162.586458,246.957177 C162.946458,244.867177 163.746458,242.617177 166.026458,241.467177 C166.846458,241.057177 167.456458,240.027177 168.276458,239.847177 C171.686458,239.107177 174.336458,237.027177 176.916458,234.957177 C178.526458,233.667177 179.646458,231.757177 181.036458,230.167177 C181.316886,229.870912 181.721736,229.726057 182.126458,229.777177 C184.926458,230.957177 187.696458,232.207177 190.746458,233.557177 C188.838841,230.337991 186.424507,227.447543 183.596458,224.997177 Z M164.956458,169.337177 C166.596458,170.737177 168.256458,172.127177 169.876458,173.547177 C170.746458,174.307177 170.056458,175.057177 169.526458,175.427177 C168.980275,175.760751 168.30744,175.812793 167.716458,175.567177 C167.095753,175.016262 166.607008,174.332703 166.286458,173.567177 C165.656458,172.267177 165.136458,170.917177 164.576458,169.567177 L164.956458,169.337177 Z M78.3664578,124.877177 C72.1598003,115.010718 66.4850362,104.81951 61.3664578,94.3471766 C59.2364578,90.0771766 56.8964578,85.8971766 54.9664578,81.5471766 C51.5508866,74.2243635 48.7868752,66.6149665 46.7064578,58.8071766 C44.8473965,51.7779861 44.171491,44.4883447 44.7064578,37.2371766 C44.7229311,36.8507227 44.8005612,36.4693231 44.9364578,36.1071766 C45.1264578,38.9371766 45.2364578,41.7771766 45.5264578,44.5971766 C46.2054324,50.9644624 47.7079839,57.2166899 49.9964578,63.1971766 C51.9964578,68.3371766 53.9964578,73.4671766 56.3264578,78.4271766 C59.3264578,84.8371766 62.6864578,91.1171766 66.0564578,97.3671766 C69.8831245,104.453843 73.8131245,111.487177 77.8464578,118.467177 C82.1864578,125.92051 86.6464578,133.303843 91.2264578,140.617177 C95.8064578,147.977177 100.566458,155.217177 105.226458,162.517177 C105.286458,162.617177 105.226458,162.777177 105.226458,162.917177 L104.986458,163.047177 C101.986458,159.047177 98.8164578,155.247177 95.9864578,151.167177 C90.0464578,142.477177 84.0564578,133.767177 78.3664578,124.877177 Z M164.366458,231.257177 L166.646458,236.837177 L166.356458,236.947177 L159.656458,229.107177 L170.846458,231.777177 C167.666458,228.417177 164.726458,225.137177 160.216458,223.957177 C157.316458,223.207177 155.336458,224.067177 153.536458,226.447177 C152.16191,228.173051 150.678913,229.809692 149.096458,231.347177 C148.823552,231.695546 148.391122,231.879709 147.950842,231.835073 C147.510562,231.790436 147.123893,231.52323 146.926458,231.127177 C146.245319,230.32492 145.524415,229.557291 144.766458,228.827177 C147.256458,229.447177 148.116458,227.697177 149.446458,226.667177 C151.309097,225.012704 153.371856,223.598336 155.586458,222.457177 C159.156458,220.927177 162.586458,222.147177 165.376458,224.587177 C167.854145,226.974125 170.210443,229.48395 172.436458,232.107177 C172.816458,232.527177 173.166458,232.977177 173.696458,233.607177 L164.366458,231.257177 Z" id="Shape" fill="#000000" fill-rule="nonzero"></path>
    </g>
</svg>